<?xml version="1.0" encoding="UTF-8" standalone="no"?>
<svg
   xmlns:dc="http://purl.org/dc/elements/1.1/"
   xmlns:cc="http://creativecommons.org/ns#"
   xmlns:rdf="http://www.w3.org/1999/02/22-rdf-syntax-ns#"
   xmlns:svg="http://www.w3.org/2000/svg"
   xmlns="http://www.w3.org/2000/svg"
   xmlns:xlink="http://www.w3.org/1999/xlink"
   height="500"
   width="1052.7"
   version="1.0"
   viewBox="0 0 1052.7 500"
   id="svg2">
  <defs
     id="defs4">
    <linearGradient
       id="linearGradient3508">
      <stop
         offset="0"
         style="stop-color:#4a83ba;stop-opacity:.40099"
         id="stop3510" />
      <stop
         offset="1"
         style="stop-color:#75a0d9;stop-opacity:.41089"
         id="stop3512" />
    </linearGradient>
    <linearGradient
       id="linearGradient9675">
      <stop
         offset="0"
         style="stop-color:#ffffff;stop-opacity:.12376"
         id="stop9677" />
      <stop
         offset="1"
         style="stop-color:#00239a;stop-opacity:0"
         id="stop9679" />
    </linearGradient>
    <linearGradient
       id="linearGradient10555">
      <stop
         offset="0"
         style="stop-color:#0b0b28"
         id="stop10557" />
      <stop
         offset="1"
         style="stop-color:#000000"
         id="stop10559" />
    </linearGradient>
    <linearGradient
       id="linearGradient16277">
      <stop
         offset="0"
         style="stop-color:#ffef40;stop-opacity:.65882"
         id="stop16285" />
      <stop
         offset="1"
         style="stop-color:#eeffca;stop-opacity:0"
         id="stop16281" />
    </linearGradient>
    <linearGradient
       id="linearGradient11353">
      <stop
         offset="0"
         style="stop-color:#bfdfff"
         id="stop11355" />
      <stop
         offset="1"
         style="stop-color:#ffffff;stop-opacity:0"
         id="stop11357" />
    </linearGradient>
    <radialGradient
       r="280.98999"
       gradientTransform="matrix(1,0,0,0.86775,0,69.184)"
       cx="-117.45"
       cy="523.15002"
       gradientUnits="userSpaceOnUse"
       xlink:href="#linearGradient11353"
       id="radialGradient12590" />
    <radialGradient
       r="78.632004"
       gradientTransform="matrix(0.46946,0.015626,-0.14933,4.4864,-255.58,-1876.4)"
       cx="-634.03003"
       cy="541.06"
       gradientUnits="userSpaceOnUse"
       xlink:href="#linearGradient16277"
       id="radialGradient12592" />
    <radialGradient
       r="78.632004"
       gradientTransform="matrix(0.47824,-0.012162,0.11392,4.4796,-392.45,-1890.4)"
       cx="-634.03003"
       cy="541.06"
       gradientUnits="userSpaceOnUse"
       xlink:href="#linearGradient16277"
       id="radialGradient12594" />
    <radialGradient
       r="78.632004"
       gradientTransform="matrix(0.4697,0.004493,-0.042866,4.4813,-313.03,-1880.8)"
       cx="-634.03003"
       cy="541.06"
       gradientUnits="userSpaceOnUse"
       xlink:href="#linearGradient16277"
       id="radialGradient12596" />
    <radialGradient
       r="139.67999"
       cx="190.33"
       cy="1002.2"
       gradientUnits="userSpaceOnUse"
       id="radialGradient12670">
      <stop
         offset="0"
         style="stop-color:#1dbfff;stop-opacity:.51579"
         id="stop8206" />
      <stop
         offset="1"
         style="stop-color:#0a3eff;stop-opacity:0"
         id="stop8208" />
    </radialGradient>
    <radialGradient
       r="26.007999"
       gradientTransform="matrix(1,0,0,0.88926,0,61.191)"
       cx="-44.939999"
       cy="552.56"
       gradientUnits="userSpaceOnUse"
       xlink:href="#linearGradient11353"
       id="radialGradient12730" />
    <radialGradient
       r="121.2"
       gradientTransform="matrix(1.3384,0,0,1.2621,208.53,30.87)"
       cx="-616.13"
       cy="-117.8"
       gradientUnits="userSpaceOnUse"
       id="radialGradient12738">
      <stop
         offset="0"
         style="stop-color:#b7cde5"
         id="stop4941" />
      <stop
         offset="1"
         style="stop-color:#3c7bcd"
         id="stop4943" />
    </radialGradient>
    <radialGradient
       r="427.28"
       gradientTransform="matrix(0.84638,-0.014493,0.0014391,0.084046,52.637,786.74)"
       cx="350.48999"
       cy="838.65002"
       gradientUnits="userSpaceOnUse"
       xlink:href="#linearGradient9675"
       id="radialGradient12740" />
    <radialGradient
       r="427.28"
       gradientTransform="matrix(1.1014,0.0028985,-0.0025632,0.084038,-33.408,780.65)"
       cx="350.48999"
       cy="838.65002"
       gradientUnits="userSpaceOnUse"
       xlink:href="#linearGradient9675"
       id="radialGradient12746" />
    <radialGradient
       r="7.5373998"
       gradientTransform="matrix(1.1729,-0.43233,0.34585,0.93829,-128.36,210.75)"
       cx="467.42999"
       cy="138.12"
       gradientUnits="userSpaceOnUse"
       xlink:href="#linearGradient3508"
       id="radialGradient3506" />
    <linearGradient
       x1="111.13"
       y1="1335.8"
       gradientTransform="matrix(0.49696,0,0,0.46824,891.96,-7.3833)"
       x2="102.86"
       gradientUnits="userSpaceOnUse"
       xlink:href="#linearGradient10555"
       y2="1421.4"
       id="linearGradient3118" />
    <linearGradient
       x1="341.06"
       y1="1290.3"
       gradientTransform="matrix(0.49696,0,0,0.46824,891.96,-7.3833)"
       x2="338.13"
       gradientUnits="userSpaceOnUse"
       xlink:href="#linearGradient10555"
       y2="1367.2"
       id="linearGradient3121" />
    <radialGradient
       r="579.82001"
       gradientTransform="matrix(0.40065,-4.5998e-8,2.6825e-8,0.20634,958.64,339.53)"
       cx="431.85001"
       cy="707.21002"
       gradientUnits="userSpaceOnUse"
       id="radialGradient3124">
      <stop
         offset="0"
         style="stop-color:#0035dc"
         id="stop7356" />
      <stop
         offset="1"
         style="stop-color:#141434"
         id="stop7358" />
    </radialGradient>
  </defs>
  <g
     transform="translate(-838.88,-210.607)"
     id="layer2">
    <use
       x="0"
       y="0"
       width="744.09448"
       height="524.40942"
       transform="matrix(1.0423,-0.28167,0.28167,1.0423,-61.104,-346.62)"
       xlink:href="#path6605"
       id="use6672" />
    <g
       transform="matrix(2.0645,0,0,2.0645,-924.29,-721.18)"
       id="g2674">
      <g
         transform="matrix(1.0010553,0,0,0.97185148,-328.03813,-429.15718)"
         id="g3126">
        <g
           transform="matrix(1.0855554,0,0,1.2670277,-118.80915,-207.0694)"
           id="g55813">
          <path
             id="path3128"
             style="fill:#000000"
             d="m 1477.5,916.8 c 0.2,-0.01 0.4,0.01 0.6,0.08 0.1,0.08 0.2,0.17 0.3,0.27 0.2,0.13 0.3,0.31 0.4,0.47 0.3,0.38 0.6,0.69 1,0.9 l 0.1,-0.08 0.1,-0.12 c 0.1,-0.1 0.2,-0.22 0.2,-0.34 0.3,-0.44 0.7,-0.73 1.2,-0.93 0.1,-0.06 0.4,-0.06 0.5,-0.02 0.1,0.01 0.1,-0.01 0.2,0.02 0.2,0.08 0.4,0.25 0.5,0.45 0.1,0.11 0.1,0.24 0.1,0.38 -0.1,0.31 -0.1,0.54 -0.2,0.83 l -0.6,1.46 0,0.17 c -0.1,0.22 -0.2,0.48 -0.3,0.7 -0.3,0.65 -0.8,1.25 -1.2,1.84 -0.4,0.63 -0.8,1.23 -1,1.92 -0.1,0.22 -0.2,0.5 -0.2,0.73 -0.1,0.26 -0.2,0.57 -0.2,0.84 0,0.64 -0.1,1.1 -0.1,1.62 l 0,0.09 c 0,0.32 -0.1,0.7 -0.1,1.08 -0.1,0.19 -0.2,0.29 -0.2,0.43 -0.1,0.27 -0.1,0.59 -0.2,0.84 -0.1,0.11 -0.1,0.18 -0.2,0.28 l 0.4,0.52 c 0.1,0.18 0.2,0.36 0.4,0.48 0.2,0.21 0.3,0.4 0.5,0.59 0.2,0.21 0.4,0.42 0.7,0.61 0.1,0.06 0.2,0.17 0.3,0.22 0.2,0.06 0.4,0.1 0.6,0.09 0.3,0.02 0.5,-0.02 0.8,-0.12 0.3,-0.09 0.6,-0.16 0.8,-0.26 0,0 0.1,-0.06 0.2,-0.1 0.1,-0.07 0.3,-0.1 0.4,-0.18 0.1,-0.07 0.2,-0.15 0.4,-0.22 0.1,-0.11 0.3,-0.23 0.4,-0.35 0.2,-0.17 0.4,-0.27 0.5,-0.39 0,-0.04 0.2,-0.17 0.3,-0.32 0.3,-0.23 0.5,-0.43 0.7,-0.68 0.4,-0.58 0.9,-1.25 1.2,-1.95 0,-0.1 0.1,-0.25 0.2,-0.38 0,-0.18 0,-0.3 0.1,-0.48 0.1,-0.5 0.3,-0.98 0.5,-1.5 0.1,-0.23 0.2,-0.43 0.4,-0.57 0,-0.12 0.1,-0.2 0.2,-0.29 0.1,-0.17 0.2,-0.32 0.4,-0.44 0.1,-0.12 0.3,-0.25 0.4,-0.33 0.2,-0.12 0.3,-0.13 0.5,-0.11 0.1,-0.01 0.1,0 0.2,0.02 0,0.05 0.1,0.09 0.2,0.11 0,0.06 0.1,0.1 0.1,0.17 0,0.17 0.1,0.23 0.1,0.28 l 0,0.19 c 0,0.19 0,0.37 -0.1,0.58 -0.2,0.77 -0.4,1.55 -0.7,2.33 l -0.3,0.91 c -0.1,0.23 -0.1,0.54 0,0.81 0,0.08 0.1,0.17 0.1,0.26 0.1,0.09 0.2,0.2 0.3,0.24 0.2,0.05 0.3,0.06 0.4,0.08 0.2,-0.01 0.4,0 0.6,-0.03 0.3,-0.04 0.5,-0.14 0.8,-0.25 0.5,-0.22 1,-0.42 1.5,-0.72 0.4,-0.22 0.9,-0.43 1.3,-0.57 0.1,-0.05 0.2,-0.05 0.3,-0.01 0.1,0.06 0.2,0.14 0.3,0.2 0,0.05 0.1,0.08 0.1,0.17 l 0,0.39 c 0,0.14 0,0.25 -0.1,0.38 l 0,0.1 c -0.1,0.13 -0.1,0.27 -0.2,0.43 l 0,0.06 c 0,0.08 0,0.14 -0.1,0.21 0,0.09 -0.2,0.19 -0.2,0.25 -0.1,0.15 -0.2,0.28 -0.3,0.41 -0.1,0.1 -0.2,0.22 -0.3,0.32 -0.2,0.16 -0.4,0.32 -0.6,0.47 -0.3,0.2 -0.6,0.38 -1,0.44 -0.3,0.12 -0.7,0.18 -1,0.26 -0.1,0.01 -0.2,0.04 -0.3,0.06 -0.2,-0.01 -0.4,-0.03 -0.7,-0.01 -0.2,0.04 -0.5,0.06 -0.8,0.08 -0.3,0.05 -0.6,0.04 -0.8,0.07 -0.2,0.04 -0.5,0.12 -0.7,0.18 -0.2,0.03 -0.4,0.09 -0.6,0.13 -0.3,0.05 -0.5,0.08 -0.7,0.14 -0.7,0.25 -1.4,0.52 -2,0.87 -0.8,0.43 -1.5,1.09 -2,1.84 -0.1,0.22 -0.1,0.38 -0.2,0.61 -0.1,0.22 -0.2,0.46 -0.3,0.7 -0.1,0.41 -0.1,0.83 -0.1,1.22 -0.1,0.42 -0.1,0.82 -0.2,1.23 0,0.15 0,0.32 -0.1,0.47 -0.1,0.34 -0.2,0.63 -0.3,0.96 0,0.05 -0.1,0.15 -0.1,0.22 -0.4,1.17 -1.1,2.23 -2.1,3.07 l -0.9,0.79 -1,0.75 c -0.9,0.56 -1.8,1.09 -2.8,1.39 -0.5,0.15 -1.2,0.35 -1.9,0.59 -4.5,1.49 -5.1,2.77 -6.7,3.43 l -0.2,-0.18 c 0,0.38 -0.1,0.61 0,0.65 0.3,0.22 2.7,6.9 3.7,10.41 1.8,6.12 3.8,8.56 7.1,8.76 1.9,0.12 5.1,2.43 6.6,4.79 0.7,1.04 5.2,2.28 9.3,2.52 1.4,0.09 2.8,0.27 3,0.38 0.3,0.11 2.8,0.24 5.7,0.33 2.8,0.09 6.7,0.33 8.5,0.5 1.8,0.18 3.6,0.26 4,0.17 1.1,-0.23 2.3,-1.74 3.8,-4.96 0.7,-1.63 1.7,-3.19 2.4,-3.7 1.7,-1.31 5.4,-2.74 6,-2.34 0.7,0.47 0.5,0.93 -1.3,2.32 -1.7,1.36 -3.1,3.55 -2.9,4.63 0.1,0.39 -0.1,0.98 -0.4,1.34 -1.5,1.59 -1.6,2.85 -0.6,6.35 1,3.25 0.9,3.36 0.2,6.31 -1,3.85 -0.7,5.65 1.2,7.12 1.5,1.07 5,1.87 7.3,1.64 1,-0.09 1.5,0.19 3,2.03 1,1.2 2.6,2.7 3.5,3.3 2.4,1.6 7.9,3.9 8.8,3.8 0.4,-0.1 1.4,0 2.2,0.3 1.5,0.6 4,2.5 3.7,3 -0.1,0.1 -1,0.4 -1.9,0.6 l -1.7,0.4 0.6,1.4 c 0.5,1.4 0.5,1.5 -0.5,1.8 -0.6,0.2 -1.3,0.4 -1.6,0.4 -0.3,-0.1 -0.6,0 -0.8,0 -0.2,0.1 -0.8,-0.2 -1.4,-0.6 -0.7,-0.3 -1.7,-0.9 -2.4,-1.2 -2.4,-1 -6.1,-3.5 -6.9,-4.6 -0.4,-0.5 -1.9,-1.6 -3.4,-2.4 -2.5,-1.5 -2.7,-1.6 -6.3,-1.3 -2,0.2 -4.5,0.4 -5.5,0.5 -5.9,0.7 -8.5,-0.2 -11.5,-4 -2.8,-3.43 -5.2,-4.19 -10.8,-3.53 -2.2,0.25 -4.1,0.62 -4.3,0.82 -0.2,0.19 -0.8,0.37 -1.3,0.41 -1.2,0.1 -5.2,-0.17 -6.3,-0.49 -1.8,-0.5 -8.1,-2.41 -10.2,-3.04 -1.1,-0.37 -2.4,-0.71 -2.7,-0.79 -0.4,-0.07 -1.1,-0.35 -1.6,-0.56 -0.6,-0.23 -2.1,-0.19 -3.6,0.09 -2.6,0.47 -4.6,0.2 -9.1,-1.42 -4.6,-1.64 -7.1,-1.01 -11.7,3.01 -1.8,1.53 -3.5,2.8 -3.7,2.85 -0.2,0.05 -1.1,0.95 -1.9,1.95 -1.4,1.8 -1.5,1.9 -4.1,2.5 l -2.8,0.5 1.4,-2 c 0.7,-1.2 1.6,-2.3 2,-2.5 0.4,-0.22 1.2,-1.05 1.8,-1.87 0.7,-0.81 2.1,-2.11 3.3,-2.87 1.3,-0.76 2.2,-1.49 2.1,-1.68 0,-0.47 -0.5,-0.35 -4.4,1.37 -4.4,1.94 -6.9,2.51 -9.3,2.06 -1.1,-0.2 -1.9,-0.51 -1.9,-0.65 -0.2,-0.68 6.3,-3.37 9.5,-3.95 2.9,-0.54 8.5,-2.42 10,-3.41 1.5,-1 1.2,-0.95 9.6,-1.17 1.5,-0.05 3.1,-0.29 3.5,-0.52 1,-0.63 0.9,-2.13 -0.3,-4.53 -0.6,-1.17 -1.3,-2.62 -1.6,-3.26 -0.3,-0.64 -1.1,-1.71 -1.7,-2.36 -2.1,-2.34 -2.2,-3.32 -0.9,-7.98 1.1,-4.08 1.1,-4.31 0.4,-5.77 -0.4,-0.84 -1.1,-1.77 -1.5,-2.08 -0.8,-0.6 -6.4,-2.14 -7.1,-1.99 -0.6,0.12 -1.1,-0.69 -1.3,-2.02 -0.4,-1.88 0,-2.23 3.4,-3 2.4,-0.54 4.9,-1.38 6.7,-2.13 l -0.9,-0.31 -4.1,-0.76 c -0.7,-0.14 -1.5,-0.3 -2.3,-0.42 -0.7,-0.08 -1.3,-0.27 -1.9,-0.56 -0.4,-0.21 -0.7,-0.41 -1.1,-0.67 -0.3,-0.21 -0.4,-0.6 -0.2,-0.94 0.1,-0.31 0.3,-0.56 0.7,-0.6 0.4,-0.07 0.8,0.03 1.2,0.19 l -0.4,-0.87 -0.3,-0.88 -0.2,-0.91 c -0.2,-1.21 -0.4,-2.45 -0.3,-3.67 l -0.6,-0.92 c -0.2,-0.24 -0.3,-0.52 -0.3,-0.83 -0.1,-0.31 0.1,-0.66 0.4,-0.74 0.3,-0.11 0.6,-0.06 0.9,0.17 l 1,0.73 c 0.4,0.28 0.8,0.49 1.2,0.65 0.3,0.12 0.6,0.21 0.9,0.27 l -0.4,-0.63 -0.3,-0.92 -0.4,-1.27 -0.2,-0.61 c 0,-0.31 0.1,-0.62 0.4,-0.78 0.2,-0.11 0.5,-0.08 0.7,0.06 0.3,0.19 0.5,0.45 0.7,0.75 0.3,0.44 0.5,0.89 0.8,1.34 0.2,0.48 0.6,0.91 0.9,1.3 0.7,0.69 1.2,1.24 1.8,1.84 0.4,0.41 1,0.89 1.7,1.15 0,0.03 0.1,0.06 0.2,0.05 0.3,0.12 0.6,0.02 0.8,-0.22 0.1,-0.08 0.2,-0.19 0.2,-0.29 0.1,-0.13 0.1,-0.25 0,-0.4 0,-0.46 0,-0.95 0.1,-1.41 0.1,-0.52 0.3,-0.99 0.6,-1.39 0.3,-0.35 0.8,-0.36 1.1,0.04 0.1,0.19 0.2,0.49 0.2,0.75 -0.1,1.46 -0.1,2.89 -0.1,4.3 l 4.9,1.81 0.7,-0.46 1.2,-0.98 c 0.9,-0.8 1.8,-1.7 2.5,-2.67 0.5,-0.68 0.9,-1.42 1.2,-2.2 0.1,-0.07 0.1,-0.12 0.2,-0.17 0.2,-0.56 0.3,-1.11 0.3,-1.67 0,-0.58 0,-1.18 -0.3,-1.69 -0.2,-0.42 -0.4,-0.84 -0.6,-1.21 -0.4,-0.58 -0.8,-1.13 -1.2,-1.6 -0.5,-0.48 -1.1,-0.83 -1.7,-1.1 -0.4,-0.24 -1,-0.51 -1.5,-0.78 -0.4,-0.17 -0.6,-0.24 -0.9,-0.33 -0.4,-0.16 -0.7,-0.3 -1.1,-0.41 -0.7,-0.15 -1.3,-0.33 -1.9,-0.55 l -0.9,-0.23 c -0.4,-0.13 -0.8,-0.42 -1.1,-0.77 -0.2,-0.26 -0.3,-0.58 -0.1,-0.87 0.1,-0.38 0.5,-0.66 0.9,-0.73 0.4,-0.09 0.8,-0.13 1.2,-0.06 0.5,0.07 0.9,0.21 1.4,0.31 l 3.2,-1.41 -0.2,-0.75 c -0.2,-0.83 -0.4,-1.7 -0.4,-2.57 0,-0.32 0.3,-0.59 0.5,-0.75 0.2,-0.12 0.5,-0.11 0.7,0.01 0.3,0.09 0.5,0.26 0.6,0.48 0.1,0.3 0.2,0.63 0.3,0.93 0.1,0.42 0.3,0.8 0.5,1.16 0.1,0.36 0.3,0.67 0.5,0.98 0.1,0.2 0.3,0.42 0.4,0.61 l 0.3,-0.01 0.5,0.09 1.5,0.45 1.5,0.5 1.8,0.52 c 0.6,0.2 1.2,0.27 1.7,0.2 l 0.3,-0.31 c 0.2,-0.2 0.3,-0.42 0.3,-0.62 0,-0.05 0.1,-0.06 0.1,-0.11 0.1,-0.24 0.1,-0.46 0.2,-0.68 l 0,-0.76 c 0,-0.21 0,-0.42 -0.1,-0.59 0,-0.09 -0.1,-0.21 -0.1,-0.26 -0.1,-0.1 -0.2,-0.19 -0.3,-0.34 -0.1,-0.16 -0.3,-0.37 -0.4,-0.51 -0.2,-0.12 -0.4,-0.26 -0.5,-0.4 l -0.8,-0.69 -0.6,-0.52 c -0.3,-0.27 -0.6,-0.6 -0.8,-0.94 -0.2,-0.2 -0.2,-0.37 -0.3,-0.58 -0.1,-0.21 -0.1,-0.5 0,-0.71 0.3,-0.4 0.8,-0.55 1.3,-0.31 1,0.52 1.8,1.16 2.6,1.96 0,0.04 0.1,0.11 0.2,0.15 0.1,0.02 0.1,-0.01 0.2,0.02 0.4,0.01 0.8,-0.19 1,-0.56 0.1,-0.22 0.2,-0.45 0.3,-0.67 0,-0.02 0.1,-0.03 0.1,-0.05 0.1,-0.26 0.1,-0.5 0.1,-0.77 -0.1,-0.18 -0.1,-0.43 -0.3,-0.6 -0.1,-0.28 -0.3,-0.52 -0.5,-0.79 -0.4,-0.43 -0.7,-0.91 -0.9,-1.41 -0.1,-0.21 -0.1,-0.41 0,-0.6 0.1,-0.17 0.3,-0.32 0.4,-0.44 0.1,-0.07 0.3,-0.07 0.4,-0.07 z m -9.7,13.32 c -0.1,0.01 -0.3,0.07 -0.4,0.17 -0.1,0.06 -0.1,0.21 0,0.3 0.4,0.38 0.8,0.73 1.2,1.06 0.4,0.29 0.8,0.53 1.2,0.75 0.1,0.05 0.2,0.13 0.4,0.12 0.5,0.02 0.9,0.05 1.4,0.11 0.1,-0.01 0.3,-0.03 0.4,0.01 l 0,0.1 c 0.3,0.1 0.5,0.24 0.6,0.48 0.1,0.08 0.1,0.16 0.1,0.27 0,0.11 -0.1,0.29 -0.2,0.39 0,0.02 0.1,0.05 0.1,0.05 -0.1,0.22 -0.3,0.41 -0.4,0.66 -0.1,0.17 -0.1,0.36 -0.1,0.53 l 0,0.35 c 0,0.26 0.1,0.59 0.2,0.85 0.2,0.78 0.3,1.58 0.2,2.41 l 0,0.49 c 0.5,-0.14 0.9,-0.29 1.4,-0.53 0.2,-0.14 0.5,-0.31 0.7,-0.41 0.2,-0.06 0.4,-0.1 0.6,-0.02 0.3,0.12 0.6,0.44 0.5,0.8 0,0.14 0,0.35 -0.1,0.47 0,0.1 -0.1,0.14 -0.1,0.23 -0.2,0.25 -0.4,0.42 -0.6,0.56 -0.5,0.3 -0.9,0.64 -1.4,0.99 -0.4,0.34 -0.9,0.7 -1.3,1.08 -0.9,0.69 -1.7,1.45 -2.4,2.27 -0.5,0.51 -0.9,1.07 -1.4,1.6 l -0.7,0.63 0.1,0.04 c 1.9,-0.3 3.7,-0.78 5.5,-1.43 0.7,-0.26 1.3,-0.57 1.9,-0.94 0.7,-0.47 1.4,-1.03 2,-1.67 0.5,-0.5 0.9,-1.06 1.2,-1.64 0.1,-0.19 0.2,-0.4 0.3,-0.6 0.2,-0.66 0.3,-1.4 0.3,-2.12 0.1,-1.4 -0.3,-2.75 -1.1,-3.91 -0.5,-0.75 -1.2,-1.41 -1.9,-1.9 -0.8,-0.53 -1.6,-1 -2.5,-1.34 -0.2,-0.1 -0.5,-0.2 -0.7,-0.29 -0.8,-0.28 -1.5,-0.53 -2.3,-0.73 -0.2,-0.02 -0.3,-0.05 -0.4,-0.06 -0.2,-0.03 -0.3,-0.03 -0.5,-0.07 0,0 -0.2,0.01 -0.3,0.02 -0.3,-0.01 -0.6,-0.08 -1,-0.14 -0.2,-0.02 -0.3,-0.01 -0.5,0.01 z m -18.3,12.99 c -0.2,0.81 -0.2,1.62 -0.1,2.4 0.2,0.98 0.7,1.92 1.3,2.68 0.2,0.19 0.5,0.4 0.7,0.56 0.2,0.1 0.4,0.14 0.6,0.24 0.1,0.04 0.2,0.09 0.3,0.13 0.1,0.03 0.1,0.04 0.1,0.06 l 0.4,-0.02 c 0,-0.31 0,-0.61 -0.2,-0.91 -0.2,-0.4 -0.4,-0.85 -0.4,-1.31 l 0,-0.35 c 0.1,-0.18 0.2,-0.27 0.4,-0.34 0.3,-0.07 0.6,-0.08 0.9,0.03 0.1,0.03 0.1,0.07 0.2,0.1 0.4,0.19 0.6,0.44 0.9,0.76 0.3,0.29 0.6,0.62 0.9,0.97 0.2,0.35 0.4,0.69 0.6,1.03 l 0.2,0.35 c 1.1,0.6 2.2,1.01 3.5,1.28 l 0.8,0.17 0.6,0.08 c 0,-0.25 0,-0.56 -0.1,-0.83 -0.1,-0.33 -0.2,-0.68 -0.4,-0.96 -0.2,-0.4 -0.6,-0.79 -0.9,-1.1 -0.5,-0.44 -1,-0.8 -1.5,-1.1 -1,-0.58 -2,-1.11 -3,-1.62 l -0.6,-0.27 -0.5,-0.21 -1,-0.4 -2.3,-0.9 -1.4,-0.52 z" />
          <path
             id="path3130"
             style="fill:#000000"
             d="m 1357.4,912.58 c 0.2,-0.03 0.4,-0.03 0.6,0.02 0.1,0.07 0.3,0.14 0.4,0.23 0.2,0.11 0.3,0.27 0.4,0.42 0.3,0.35 0.7,0.61 1.1,0.78 l 0.1,-0.1 0.1,-0.12 c 0.1,-0.12 0.1,-0.24 0.2,-0.37 0.2,-0.47 0.5,-0.79 1,-1.05 0.1,-0.08 0.4,-0.11 0.6,-0.09 0,0.01 0.1,-0.02 0.1,0 0.2,0.06 0.4,0.21 0.6,0.39 0,0.11 0.1,0.23 0.1,0.37 0,0.31 -0.1,0.56 -0.1,0.85 l -0.4,1.52 0,0.16 c -0.1,0.24 -0.1,0.5 -0.2,0.73 -0.3,0.69 -0.6,1.34 -1,1.97 -0.3,0.67 -0.6,1.31 -0.8,2.03 -0.1,0.23 -0.1,0.51 -0.1,0.75 -0.1,0.27 -0.1,0.57 -0.1,0.85 0,0.64 0,1.11 0.1,1.62 -0.1,-0.25 0,-0.07 0,0.1 l 0,1.08 c 0,0.19 -0.1,0.31 -0.1,0.45 0,0.27 -0.1,0.6 -0.2,0.86 0,0.11 0,0.19 -0.1,0.29 l 0.5,0.47 c 0.1,0.17 0.2,0.33 0.4,0.43 0.2,0.2 0.4,0.36 0.6,0.53 0.2,0.19 0.5,0.37 0.7,0.53 0.1,0.05 0.3,0.15 0.4,0.18 0.2,0.05 0.4,0.06 0.6,0.02 0.3,-0.01 0.5,-0.08 0.8,-0.21 0.3,-0.12 0.5,-0.22 0.7,-0.35 0.1,0 0.1,-0.07 0.2,-0.13 0.2,-0.08 0.3,-0.13 0.4,-0.21 0.1,-0.09 0.2,-0.18 0.3,-0.26 0.2,-0.13 0.3,-0.27 0.4,-0.4 0.2,-0.21 0.3,-0.31 0.5,-0.45 0,-0.05 0.1,-0.19 0.3,-0.35 0.2,-0.26 0.4,-0.49 0.5,-0.76 0.4,-0.63 0.8,-1.34 1,-2.07 0,-0.1 0.1,-0.27 0.1,-0.4 0.1,-0.18 0.1,-0.31 0.1,-0.49 0.1,-0.52 0.2,-1.01 0.3,-1.55 0.1,-0.23 0.2,-0.45 0.3,-0.61 0.1,-0.13 0.1,-0.21 0.2,-0.31 0.1,-0.18 0.2,-0.35 0.4,-0.48 0.1,-0.14 0.2,-0.28 0.3,-0.38 0.2,-0.13 0.4,-0.17 0.6,-0.17 0,-0.01 0.1,-0.02 0.1,0 0.1,0.05 0.1,0.08 0.2,0.09 0.1,0.05 0.1,0.09 0.1,0.16 0.1,0.16 0.1,0.22 0.2,0.26 l 0,0.19 0,0.58 c -0.1,0.79 -0.3,1.59 -0.4,2.4 l -0.2,0.94 c -0.1,0.23 -0.1,0.55 0,0.8 0.1,0.09 0.1,0.17 0.2,0.25 0.1,0.08 0.2,0.17 0.4,0.2 0.1,0.04 0.2,0.03 0.3,0.03 0.2,-0.03 0.4,-0.03 0.6,-0.09 0.3,-0.07 0.5,-0.2 0.7,-0.33 0.5,-0.29 1,-0.54 1.5,-0.9 0.4,-0.26 0.8,-0.53 1.2,-0.72 0.1,-0.06 0.2,-0.07 0.3,-0.04 0.1,0.05 0.2,0.12 0.3,0.17 0.1,0.04 0.1,0.07 0.1,0.15 0.1,0.13 0.1,0.28 0.1,0.39 0,0.14 0,0.25 -0.1,0.39 l 0,0.1 c 0,0.13 -0.1,0.29 -0.1,0.45 l 0,0.06 0,0.22 c -0.1,0.1 -0.2,0.2 -0.3,0.28 0,0.15 -0.1,0.28 -0.2,0.43 -0.1,0.12 -0.2,0.24 -0.3,0.35 -0.1,0.19 -0.3,0.37 -0.5,0.54 -0.3,0.24 -0.6,0.45 -0.9,0.55 -0.3,0.15 -0.7,0.26 -1,0.37 l -0.3,0.09 c -0.2,0.03 -0.4,0.03 -0.7,0.08 -0.2,0.07 -0.5,0.12 -0.8,0.18 -0.3,0.08 -0.6,0.1 -0.8,0.15 -0.2,0.07 -0.4,0.18 -0.6,0.26 -0.2,0.06 -0.4,0.14 -0.6,0.2 -0.3,0.08 -0.5,0.13 -0.7,0.22 -0.7,0.32 -1.3,0.67 -1.9,1.1 -0.8,0.51 -1.3,1.25 -1.7,2.05 -0.1,0.23 -0.2,0.4 -0.2,0.63 -0.1,0.24 -0.2,0.48 -0.2,0.73 l 0,1.23 0,1.24 c 0,0.15 0,0.32 -0.1,0.48 0,0.35 -0.1,0.65 -0.1,0.99 -0.1,0.05 -0.1,0.15 -0.1,0.23 -0.3,1.21 -0.9,2.34 -1.7,3.28 l -0.9,0.9 -0.9,0.86 c -0.8,0.66 -1.6,1.29 -2.6,1.7 -0.5,0.21 -1.1,0.49 -1.8,0.8 -4.3,2 -4.7,3.34 -6.3,4.18 l -0.2,-0.15 c 0,0.38 0,0.61 0.1,0.65 0.4,0.18 3.5,6.53 4.9,9.9 2.5,5.88 4.7,8.08 8.1,7.89 1.9,-0.1 5.3,1.82 7,4 0.8,0.96 5.5,1.67 9.6,1.44 1.4,-0.09 2.8,-0.06 3,0.02 0.3,0.09 2.8,-0.08 5.7,-0.32 2.8,-0.24 6.6,-0.44 8.4,-0.48 1.9,-0.03 3.6,-0.16 4.1,-0.29 1.1,-0.36 2,-1.99 3.1,-5.37 0.6,-1.7 1.4,-3.37 2,-3.95 1.6,-1.51 5.1,-3.35 5.8,-3.02 0.7,0.38 0.5,0.86 -1.1,2.45 -1.5,1.55 -2.7,3.89 -2.3,4.94 0.1,0.38 0,0.98 -0.3,1.37 -1.3,1.75 -1.2,3.02 0.2,6.38 1.3,3.12 1.3,3.23 0.8,6.25 -0.5,3.94 0,5.69 2.1,6.93 1.5,0.9 5.1,1.29 7.4,0.79 1,-0.2 1.5,0.02 3.3,1.67 1.1,1.07 2.8,2.37 3.8,2.85 2.5,1.32 8.3,3.03 9.2,2.74 0.4,-0.14 1.4,-0.09 2.2,0.1 1.6,0.39 4.2,2.06 4,2.53 -0.1,0.17 -0.9,0.55 -1.8,0.85 l -1.6,0.53 0.7,1.35 c 0.7,1.3 0.7,1.4 -0.3,1.9 -0.5,0.3 -1.2,0.5 -1.5,0.5 -0.3,0 -0.7,0.1 -0.8,0.2 -0.2,0 -0.8,-0.2 -1.5,-0.5 -0.7,-0.3 -1.8,-0.7 -2.5,-0.9 -2.5,-0.7 -6.5,-2.79 -7.3,-3.75 -0.5,-0.54 -2.2,-1.45 -3.7,-2.09 -2.7,-1.13 -2.9,-1.18 -6.4,-0.5 -2.1,0.39 -4.5,0.89 -5.4,1.11 -5.9,1.36 -8.5,0.79 -12,-2.6 -3.2,-3.12 -5.6,-3.6 -11.1,-2.3 -2.1,0.49 -3.9,1.09 -4.1,1.3 -0.2,0.22 -0.8,0.46 -1.3,0.58 -1.2,0.28 -5.2,0.42 -6.3,0.23 -1.8,-0.3 -8.4,-1.46 -10.4,-1.86 -1.2,-0.23 -2.5,-0.42 -2.9,-0.46 -0.3,-0.04 -1.1,-0.23 -1.6,-0.37 -0.7,-0.16 -2.1,0.05 -3.6,0.49 -2.5,0.78 -4.5,0.73 -9.2,-0.35 -4.8,-1.1 -7.1,-0.19 -11.3,4.33 -1.6,1.73 -3.1,3.19 -3.3,3.26 -0.2,0.08 -0.9,1.08 -1.6,2.18 -1.2,2 -1.3,2.1 -3.9,2.9 l -2.6,0.9 1,-2.2 c 0.6,-1.2 1.4,-2.4 1.8,-2.7 0.4,-0.28 1.1,-1.2 1.6,-2.08 0.5,-0.88 1.8,-2.34 3,-3.23 1.1,-0.89 1.9,-1.73 1.8,-1.91 -0.1,-0.46 -0.5,-0.29 -4.2,1.87 -4.2,2.44 -6.6,3.29 -9,3.12 -1.1,-0.08 -2,-0.29 -2,-0.43 -0.2,-0.66 5.9,-4.07 9,-5.02 2.9,-0.87 8.2,-3.39 9.5,-4.54 1.4,-1.16 1.1,-1.07 9.4,-2.27 1.6,-0.22 3.1,-0.63 3.4,-0.91 0.9,-0.74 0.7,-2.22 -0.8,-4.47 -0.7,-1.09 -1.6,-2.44 -2,-3.05 -0.3,-0.6 -1.2,-1.58 -1.9,-2.15 -2.3,-2.08 -2.6,-3.04 -1.8,-7.83 0.6,-4.18 0.6,-4.41 -0.3,-5.78 -0.5,-0.78 -1.3,-1.62 -1.7,-1.89 -0.9,-0.5 -6.6,-1.4 -7.3,-1.15 -0.5,0.17 -1.1,-0.56 -1.5,-1.86 -0.6,-1.82 -0.3,-2.22 3,-3.37 2.3,-0.82 4.8,-1.94 6.5,-2.9 l -1,-0.19 -4.1,-0.29 c -0.8,-0.06 -1.6,-0.12 -2.4,-0.15 -0.7,-0.01 -1.3,-0.13 -1.9,-0.34 -0.4,-0.17 -0.8,-0.32 -1.2,-0.53 -0.4,-0.18 -0.5,-0.55 -0.4,-0.92 0.1,-0.31 0.4,-0.59 0.7,-0.67 0.4,-0.12 0.8,-0.06 1.2,0.05 l -0.4,-0.82 -0.5,-0.84 -0.3,-0.88 c -0.3,-1.17 -0.6,-2.39 -0.7,-3.62 l -0.7,-0.84 c -0.2,-0.22 -0.3,-0.48 -0.4,-0.78 -0.1,-0.31 0,-0.68 0.3,-0.79 0.3,-0.14 0.6,-0.13 0.9,0.06 l 1.1,0.61 c 0.4,0.24 0.9,0.4 1.3,0.51 0.3,0.09 0.6,0.14 0.9,0.16 l -0.4,-0.57 -0.5,-0.88 -0.5,-1.21 -0.3,-0.59 c -0.1,-0.3 0.1,-0.63 0.3,-0.82 0.2,-0.14 0.5,-0.14 0.7,-0.02 0.3,0.16 0.6,0.38 0.8,0.66 0.4,0.4 0.7,0.83 0.9,1.24 0.4,0.45 0.7,0.84 1.2,1.18 0.7,0.62 1.3,1.1 1.9,1.63 0.4,0.37 1.1,0.77 1.8,0.95 0.1,0.02 0.1,0.04 0.2,0.03 0.3,0.08 0.6,-0.06 0.8,-0.32 0.1,-0.09 0.1,-0.21 0.2,-0.31 0,-0.13 0,-0.25 -0.1,-0.4 -0.1,-0.45 -0.1,-0.94 -0.1,-1.41 0.1,-0.53 0.3,-1.02 0.5,-1.45 0.3,-0.39 0.8,-0.45 1.1,-0.09 0.1,0.18 0.3,0.47 0.3,0.73 0.1,1.46 0.2,2.88 0.4,4.28 l 5,1.24 0.7,-0.54 1,-1.11 c 0.9,-0.9 1.6,-1.89 2.2,-2.94 0.5,-0.74 0.8,-1.52 1,-2.33 0.1,-0.07 0.1,-0.14 0.1,-0.19 0.2,-0.58 0.2,-1.13 0.2,-1.7 -0.1,-0.57 -0.2,-1.16 -0.5,-1.64 -0.2,-0.4 -0.5,-0.78 -0.8,-1.13 -0.4,-0.53 -0.8,-1.04 -1.3,-1.45 -0.6,-0.43 -1.2,-0.71 -1.8,-0.91 -0.5,-0.18 -1.1,-0.38 -1.7,-0.59 -0.3,-0.12 -0.6,-0.17 -0.8,-0.23 -0.4,-0.11 -0.8,-0.21 -1.2,-0.27 -0.7,-0.08 -1.3,-0.18 -2,-0.33 l -0.9,-0.13 c -0.4,-0.08 -0.8,-0.32 -1.2,-0.64 -0.2,-0.23 -0.3,-0.54 -0.2,-0.85 0.1,-0.39 0.4,-0.71 0.8,-0.83 0.4,-0.13 0.8,-0.22 1.2,-0.19 0.5,0.01 1,0.09 1.5,0.14 l 3,-1.77 -0.3,-0.72 c -0.3,-0.8 -0.6,-1.64 -0.7,-2.51 0,-0.32 0.2,-0.61 0.4,-0.8 0.2,-0.14 0.5,-0.16 0.7,-0.08 0.3,0.07 0.5,0.22 0.6,0.42 0.2,0.28 0.4,0.6 0.5,0.89 0.1,0.4 0.3,0.76 0.6,1.09 0.2,0.34 0.4,0.63 0.6,0.92 0.2,0.18 0.4,0.38 0.5,0.56 l 0.3,-0.05 0.5,0.03 1.6,0.27 1.5,0.33 1.8,0.32 c 0.6,0.12 1.2,0.13 1.7,-0.01 l 0.3,-0.34 c 0.1,-0.22 0.2,-0.44 0.2,-0.65 0.1,-0.05 0.1,-0.07 0.1,-0.12 0,-0.25 0.1,-0.47 0.1,-0.7 0,-0.24 0,-0.52 -0.1,-0.76 0,-0.2 0,-0.41 -0.1,-0.57 0,-0.09 -0.1,-0.2 -0.2,-0.25 -0.1,-0.08 -0.2,-0.15 -0.3,-0.29 -0.2,-0.15 -0.3,-0.34 -0.5,-0.46 -0.2,-0.11 -0.4,-0.22 -0.5,-0.35 l -0.9,-0.59 -0.6,-0.45 c -0.4,-0.23 -0.7,-0.52 -0.9,-0.83 -0.2,-0.19 -0.3,-0.35 -0.4,-0.55 -0.1,-0.2 -0.2,-0.48 0,-0.71 0.2,-0.44 0.7,-0.64 1.2,-0.46 1,0.41 1.9,0.95 2.8,1.65 0,0.04 0.1,0.1 0.2,0.13 0.1,0.01 0.1,-0.02 0.2,0 0.4,-0.04 0.8,-0.29 1,-0.68 0,-0.23 0.1,-0.47 0.2,-0.7 l 0,-0.06 c 0.1,-0.26 0.1,-0.5 0,-0.77 0,-0.18 -0.1,-0.42 -0.3,-0.57 -0.2,-0.26 -0.4,-0.48 -0.6,-0.71 -0.4,-0.39 -0.8,-0.84 -1.1,-1.31 -0.1,-0.2 -0.1,-0.4 0,-0.6 0.1,-0.18 0.2,-0.35 0.4,-0.48 0.1,-0.08 0.2,-0.1 0.3,-0.12 z m -8.1,14.36 c -0.1,0.02 -0.3,0.09 -0.3,0.21 -0.1,0.07 -0.1,0.22 0,0.3 0.4,0.33 0.8,0.63 1.3,0.91 0.4,0.25 0.8,0.44 1.3,0.61 0.1,0.03 0.2,0.1 0.3,0.08 0.5,-0.04 1,-0.07 1.5,-0.06 0.1,-0.02 0.2,-0.06 0.4,-0.03 l 0,0.09 c 0.3,0.07 0.5,0.19 0.6,0.41 0.1,0.07 0.2,0.15 0.2,0.26 0,0.11 -0.1,0.3 -0.1,0.4 l 0,0.05 c -0.1,0.23 -0.2,0.43 -0.3,0.69 l 0,0.54 0,0.36 c 0.1,0.25 0.2,0.57 0.3,0.82 0.3,0.75 0.4,1.54 0.5,2.36 l 0,0.5 c 0.5,-0.19 0.9,-0.41 1.3,-0.69 0.3,-0.17 0.5,-0.37 0.8,-0.49 0.1,-0.09 0.3,-0.15 0.5,-0.1 0.4,0.09 0.6,0.39 0.6,0.75 0,0.14 0,0.35 -0.1,0.48 0,0.1 0,0.15 -0.1,0.24 -0.1,0.26 -0.2,0.45 -0.4,0.62 -0.5,0.36 -0.9,0.74 -1.3,1.14 -0.4,0.4 -0.9,0.8 -1.3,1.23 -0.7,0.78 -1.4,1.64 -2,2.53 -0.4,0.56 -0.8,1.17 -1.3,1.75 l -0.5,0.7 0,0.03 c 1.9,-0.51 3.6,-1.2 5.3,-2.05 0.7,-0.34 1.2,-0.71 1.8,-1.16 0.7,-0.55 1.3,-1.18 1.9,-1.89 0.4,-0.54 0.7,-1.15 0.9,-1.76 0.1,-0.2 0.2,-0.42 0.2,-0.63 0.2,-0.68 0.2,-1.43 0.1,-2.15 -0.1,-1.39 -0.6,-2.69 -1.6,-3.74 -0.6,-0.7 -1.3,-1.27 -2,-1.68 -0.9,-0.44 -1.8,-0.81 -2.7,-1.04 -0.2,-0.08 -0.5,-0.14 -0.7,-0.21 -0.8,-0.19 -1.6,-0.35 -2.4,-0.45 -0.1,-0.01 -0.3,-0.02 -0.4,-0.02 -0.2,-0.01 -0.3,0 -0.4,-0.02 -0.1,0.01 -0.3,0.04 -0.4,0.07 -0.3,0.02 -0.6,-0.01 -1,-0.04 -0.2,0.01 -0.3,0.04 -0.5,0.08 z m -16.7,15 c 0,0.83 0,1.64 0.3,2.4 0.2,0.95 0.8,1.83 1.6,2.51 0.2,0.16 0.4,0.35 0.7,0.48 0.2,0.08 0.4,0.09 0.6,0.17 0.1,0.03 0.2,0.07 0.3,0.09 0.1,0.02 0.1,0.04 0.2,0.05 l 0.3,-0.06 c 0,-0.31 -0.1,-0.61 -0.3,-0.88 -0.3,-0.38 -0.5,-0.81 -0.6,-1.26 l 0,-0.35 c 0.1,-0.19 0.2,-0.3 0.4,-0.39 0.3,-0.1 0.6,-0.15 0.9,-0.07 0,0.02 0.1,0.06 0.2,0.08 0.4,0.15 0.7,0.37 1,0.65 0.3,0.26 0.7,0.54 0.9,0.87 0.3,0.32 0.5,0.63 0.8,0.94 l 0.2,0.33 c 1.2,0.47 2.4,0.75 3.6,0.88 l 0.9,0.06 0.6,0.02 c 0,-0.26 -0.1,-0.56 -0.2,-0.82 -0.1,-0.32 -0.3,-0.65 -0.5,-0.91 -0.3,-0.36 -0.7,-0.71 -1.1,-0.98 -0.5,-0.38 -1,-0.69 -1.6,-0.92 -1,-0.47 -2.1,-0.88 -3.2,-1.26 l -0.6,-0.2 -0.5,-0.16 -1,-0.28 -2.5,-0.63 -1.4,-0.36 z" />
          <path
             id="path3132"
             style="fill:#000000"
             d="m 1240.2,913.07 c 0.2,-0.04 0.4,-0.06 0.6,-0.03 0.1,0.06 0.3,0.12 0.4,0.2 0.2,0.09 0.3,0.25 0.5,0.38 0.3,0.33 0.7,0.55 1.1,0.68 l 0.1,-0.1 0.1,-0.13 c 0.1,-0.12 0.1,-0.25 0.1,-0.38 0.2,-0.49 0.5,-0.84 0.9,-1.13 0.2,-0.1 0.4,-0.14 0.6,-0.14 0.1,0 0.1,-0.03 0.2,-0.01 0.2,0.04 0.4,0.17 0.5,0.34 0.1,0.1 0.2,0.22 0.2,0.36 l 0,0.85 -0.3,1.54 0,0.17 c 0,0.25 0,0.51 -0.1,0.74 -0.2,0.71 -0.5,1.39 -0.8,2.05 -0.3,0.7 -0.6,1.36 -0.7,2.09 l 0,0.76 c -0.1,0.27 0,0.58 0,0.85 0.1,0.63 0.1,1.1 0.2,1.61 -0.1,-0.25 0,-0.08 0,0.09 0.1,0.32 0.1,0.7 0.1,1.08 0,0.19 -0.1,0.32 -0.1,0.46 l 0,0.87 c 0,0.11 -0.1,0.19 -0.1,0.3 l 0.5,0.42 c 0.1,0.17 0.2,0.32 0.4,0.4 0.2,0.18 0.4,0.33 0.7,0.48 0.2,0.18 0.5,0.33 0.7,0.46 0.1,0.05 0.3,0.13 0.4,0.16 0.2,0.03 0.4,0.02 0.6,-0.03 0.3,-0.04 0.5,-0.13 0.8,-0.28 0.2,-0.15 0.5,-0.26 0.7,-0.42 0,0.01 0.1,-0.07 0.2,-0.14 0.1,-0.09 0.2,-0.15 0.3,-0.24 0.1,-0.1 0.2,-0.2 0.3,-0.29 0.2,-0.14 0.3,-0.29 0.4,-0.44 0.2,-0.21 0.3,-0.33 0.4,-0.48 0,-0.05 0.2,-0.2 0.3,-0.37 0.2,-0.28 0.3,-0.53 0.5,-0.81 0.3,-0.66 0.6,-1.39 0.8,-2.14 0,-0.1 0,-0.27 0.1,-0.41 l 0,-0.5 c 0,-0.52 0.1,-1.02 0.2,-1.56 0,-0.24 0.1,-0.47 0.2,-0.64 0.1,-0.13 0.1,-0.22 0.2,-0.32 0,-0.19 0.2,-0.37 0.3,-0.51 0.1,-0.15 0.2,-0.3 0.3,-0.42 0.2,-0.14 0.3,-0.19 0.5,-0.21 0.1,-0.01 0.1,-0.02 0.2,-0.01 0.1,0.04 0.1,0.07 0.2,0.08 0.1,0.04 0.1,0.08 0.2,0.14 0,0.15 0.1,0.21 0.1,0.25 0,0.03 0.1,0.09 0.1,0.18 l 0,0.59 c -0.1,0.8 -0.1,1.6 -0.2,2.42 l -0.1,0.95 c -0.1,0.24 0,0.56 0.1,0.8 0,0.08 0.1,0.16 0.2,0.23 0.1,0.07 0.2,0.16 0.3,0.17 0.2,0.03 0.3,0.01 0.4,0.01 0.2,-0.05 0.4,-0.07 0.6,-0.14 0.2,-0.1 0.4,-0.25 0.7,-0.4 0.5,-0.33 0.9,-0.62 1.3,-1.01 0.4,-0.3 0.8,-0.6 1.2,-0.83 0.1,-0.06 0.2,-0.09 0.3,-0.07 0.1,0.05 0.2,0.11 0.3,0.15 0.1,0.04 0.1,0.06 0.2,0.14 0,0.12 0.1,0.27 0.1,0.38 0,0.14 -0.1,0.26 -0.1,0.39 l 0,0.11 c 0,0.14 -0.1,0.29 -0.1,0.46 l 0,0.06 0,0.22 c 0,0.1 -0.1,0.22 -0.2,0.29 0,0.16 -0.1,0.3 -0.2,0.45 0,0.13 -0.1,0.26 -0.2,0.38 -0.2,0.2 -0.4,0.39 -0.5,0.58 -0.3,0.26 -0.6,0.49 -0.9,0.63 -0.3,0.17 -0.6,0.31 -0.9,0.45 -0.1,0.03 -0.2,0.07 -0.3,0.11 -0.2,0.05 -0.4,0.07 -0.7,0.14 -0.2,0.09 -0.5,0.16 -0.8,0.25 -0.2,0.1 -0.5,0.15 -0.8,0.22 -0.1,0.08 -0.4,0.21 -0.6,0.31 -0.2,0.07 -0.4,0.17 -0.6,0.25 -0.2,0.1 -0.4,0.17 -0.6,0.27 -0.6,0.38 -1.3,0.79 -1.8,1.26 -0.7,0.58 -1.2,1.36 -1.5,2.19 -0.1,0.23 -0.2,0.4 -0.2,0.65 0,0.24 -0.1,0.49 -0.1,0.73 0,0.42 0.1,0.84 0.1,1.24 0,0.42 0.1,0.81 0.1,1.23 l 0,0.48 c 0,0.35 -0.1,0.65 -0.1,1 0,0.05 -0.1,0.16 -0.1,0.24 -0.2,1.23 -0.7,2.41 -1.4,3.41 l -0.7,0.96 -0.9,0.94 c -0.7,0.72 -1.6,1.43 -2.5,1.92 -0.4,0.24 -1,0.57 -1.7,0.95 -4.1,2.35 -4.4,3.72 -5.9,4.69 l -0.2,-0.14 c 0,0.39 0.1,0.62 0.1,0.65 0.4,0.15 4.1,6.21 5.7,9.45 3,5.65 5.4,7.65 8.7,7.18 1.9,-0.26 5.5,1.37 7.4,3.39 0.9,0.89 5.6,1.2 9.6,0.63 1.5,-0.21 2.8,-0.3 3.1,-0.24 0.2,0.07 2.8,-0.31 5.6,-0.79 2.8,-0.48 6.6,-1.01 8.4,-1.2 1.8,-0.18 3.6,-0.46 4,-0.63 1,-0.45 1.9,-2.16 2.7,-5.61 0.4,-1.74 1.1,-3.48 1.6,-4.11 1.5,-1.64 4.8,-3.77 5.5,-3.5 0.8,0.32 0.6,0.82 -0.8,2.54 -1.5,1.68 -2.4,4.1 -1.9,5.11 0.1,0.37 0.1,0.98 -0.2,1.39 -1.1,1.86 -1,3.12 0.7,6.35 1.5,3 1.6,3.11 1.4,6.15 -0.2,3.98 0.5,5.67 2.6,6.73 1.6,0.76 5.2,0.86 7.5,0.17 0.9,-0.29 1.5,-0.11 3.4,1.38 1.2,0.98 3,2.12 4,2.52 2.6,1.1 8.5,2.32 9.4,1.95 0.4,-0.17 1.4,-0.2 2.2,-0.08 1.6,0.25 4.4,1.69 4.2,2.18 -0.1,0.18 -0.8,0.62 -1.7,0.99 l -1.6,0.67 0.8,1.3 c 0.8,1.24 0.9,1.35 -0.1,1.9 -0.5,0.32 -1.1,0.59 -1.4,0.63 -0.3,0.05 -0.7,0.17 -0.8,0.24 -0.2,0.06 -0.9,-0.08 -1.5,-0.31 -0.7,-0.23 -1.9,-0.56 -2.6,-0.71 -2.6,-0.53 -6.7,-2.24 -7.6,-3.13 -0.5,-0.5 -2.3,-1.26 -3.9,-1.77 -2.8,-0.89 -2.9,-0.94 -6.4,0.05 -2,0.55 -4.4,1.26 -5.3,1.56 -5.7,1.84 -8.3,1.49 -12.1,-1.59 -3.5,-2.83 -5.9,-3.11 -11.3,-1.34 -2,0.66 -3.8,1.41 -4,1.64 -0.1,0.22 -0.7,0.52 -1.2,0.69 -1.2,0.37 -5.1,0.84 -6.3,0.75 -1.8,-0.14 -8.4,-0.75 -10.5,-0.97 -1.3,-0.12 -2.5,-0.21 -2.9,-0.22 -0.4,0 -1.1,-0.13 -1.7,-0.23 -0.6,-0.11 -2,0.23 -3.5,0.8 -2.5,0.98 -4.4,1.1 -9.2,0.42 -4.8,-0.69 -7.1,0.41 -10.9,5.27 -1.4,1.86 -2.8,3.42 -3,3.52 -0.2,0.1 -0.9,1.1 -1.4,2.3 -1,2.1 -1.2,2.2 -3.7,3.3 l -2.5,1 0.9,-2.2 c 0.5,-1.3 1.2,-2.6 1.5,-2.9 0.4,-0.3 1,-1.3 1.4,-2.2 0.5,-0.89 1.7,-2.46 2.7,-3.44 1,-0.99 1.8,-1.89 1.7,-2.07 -0.2,-0.44 -0.6,-0.24 -4.1,2.23 -3.9,2.78 -6.3,3.88 -8.7,3.88 -1.1,0 -2,-0.1 -2,-0.3 -0.3,-0.6 5.5,-4.53 8.5,-5.73 2.8,-1.12 7.9,-4.07 9.2,-5.33 1.3,-1.28 1,-1.17 9.1,-3.06 1.6,-0.35 3,-0.89 3.3,-1.19 0.9,-0.82 0.5,-2.28 -1.1,-4.39 -0.8,-1.03 -1.8,-2.3 -2.3,-2.87 -0.4,-0.57 -1.3,-1.47 -2,-1.99 -2.6,-1.87 -2.9,-2.81 -2.5,-7.64 0.2,-4.22 0.2,-4.44 -0.8,-5.73 -0.6,-0.74 -1.4,-1.51 -1.9,-1.74 -0.9,-0.43 -6.6,-0.84 -7.3,-0.53 -0.6,0.21 -1.2,-0.47 -1.7,-1.73 -0.8,-1.76 -0.5,-2.19 2.7,-3.61 2.3,-1.01 4.6,-2.33 6.2,-3.44 l -1,-0.1 -4.1,0.05 c -0.8,0.01 -1.5,0.01 -2.4,0.06 -0.6,0.05 -1.3,-0.02 -1.9,-0.19 -0.4,-0.13 -0.8,-0.24 -1.3,-0.42 -0.3,-0.15 -0.5,-0.51 -0.4,-0.88 0.1,-0.32 0.3,-0.62 0.6,-0.73 0.4,-0.15 0.8,-0.13 1.3,-0.06 l -0.6,-0.77 -0.5,-0.8 -0.3,-0.86 c -0.5,-1.13 -0.9,-2.32 -1.1,-3.54 l -0.8,-0.77 c -0.2,-0.2 -0.4,-0.46 -0.5,-0.75 -0.1,-0.3 0,-0.67 0.3,-0.82 0.3,-0.16 0.6,-0.17 0.9,-0.01 l 1.2,0.51 c 0.4,0.21 0.9,0.33 1.3,0.41 0.3,0.06 0.6,0.08 0.9,0.08 l -0.5,-0.54 -0.5,-0.84 -0.6,-1.15 -0.3,-0.57 c -0.2,-0.29 0,-0.63 0.2,-0.84 0.2,-0.16 0.5,-0.18 0.7,-0.09 0.3,0.14 0.6,0.34 0.8,0.6 0.4,0.37 0.7,0.77 1.1,1.16 0.3,0.42 0.7,0.78 1.2,1.08 0.7,0.55 1.4,0.98 2,1.46 0.5,0.33 1.2,0.67 1.9,0.79 0.1,0.02 0.2,0.03 0.2,0.02 0.3,0.05 0.6,-0.12 0.8,-0.39 0.1,-0.1 0.1,-0.22 0.1,-0.32 0.1,-0.14 0,-0.25 0,-0.4 -0.2,-0.44 -0.3,-0.92 -0.3,-1.39 0,-0.53 0.2,-1.04 0.4,-1.49 0.2,-0.41 0.7,-0.51 1.1,-0.18 0.1,0.17 0.3,0.44 0.3,0.7 0.2,1.45 0.5,2.85 0.8,4.23 l 5.1,0.81 0.6,-0.59 1,-1.2 c 0.7,-0.96 1.4,-2.02 1.9,-3.12 0.4,-0.76 0.6,-1.57 0.8,-2.4 0,-0.08 0.1,-0.14 0.1,-0.19 0.1,-0.59 0.1,-1.14 0,-1.71 -0.1,-0.57 -0.3,-1.14 -0.6,-1.59 -0.3,-0.38 -0.6,-0.74 -0.9,-1.06 -0.5,-0.5 -0.9,-0.97 -1.5,-1.34 -0.6,-0.37 -1.2,-0.6 -1.8,-0.75 -0.5,-0.14 -1.1,-0.29 -1.7,-0.45 -0.4,-0.09 -0.6,-0.12 -0.9,-0.16 -0.4,-0.08 -0.8,-0.14 -1.2,-0.16 -0.7,-0.03 -1.3,-0.08 -2,-0.17 l -0.9,-0.05 c -0.4,-0.05 -0.9,-0.25 -1.2,-0.54 -0.3,-0.21 -0.4,-0.51 -0.3,-0.82 0.1,-0.41 0.3,-0.75 0.7,-0.9 0.4,-0.16 0.8,-0.29 1.2,-0.3 0.5,-0.03 1,0.02 1.5,0.02 l 2.8,-2.01 -0.3,-0.7 c -0.5,-0.77 -0.8,-1.59 -0.9,-2.44 -0.1,-0.32 0.1,-0.63 0.3,-0.83 0.2,-0.16 0.5,-0.21 0.7,-0.14 0.3,0.04 0.5,0.18 0.6,0.37 0.2,0.26 0.4,0.57 0.6,0.84 0.1,0.39 0.4,0.73 0.6,1.05 0.3,0.32 0.5,0.59 0.8,0.85 0.1,0.17 0.3,0.35 0.5,0.52 l 0.3,-0.07 0.5,-0.02 1.6,0.14 1.5,0.2 1.8,0.16 c 0.6,0.08 1.3,0.03 1.8,-0.15 l 0.2,-0.36 c 0.1,-0.23 0.2,-0.46 0.2,-0.67 0,-0.05 0,-0.08 0.1,-0.13 l 0,-0.7 c 0,-0.24 -0.1,-0.52 -0.1,-0.75 -0.1,-0.2 -0.1,-0.4 -0.2,-0.56 -0.1,-0.09 -0.2,-0.19 -0.2,-0.23 -0.2,-0.08 -0.3,-0.13 -0.4,-0.26 -0.1,-0.14 -0.3,-0.31 -0.5,-0.43 -0.2,-0.08 -0.4,-0.18 -0.6,-0.29 l -0.9,-0.52 -0.7,-0.39 c -0.3,-0.2 -0.7,-0.47 -0.9,-0.76 -0.2,-0.17 -0.3,-0.32 -0.5,-0.51 -0.1,-0.19 -0.1,-0.47 0,-0.7 0.2,-0.46 0.7,-0.71 1.2,-0.57 1,0.33 2,0.78 2.9,1.41 0,0.04 0.1,0.08 0.2,0.1 0.1,0.01 0.1,-0.02 0.2,-0.01 0.4,-0.07 0.8,-0.36 0.9,-0.76 0.1,-0.23 0.1,-0.47 0.2,-0.71 l 0,-0.06 c 0,-0.27 0,-0.51 -0.1,-0.77 0,-0.18 -0.1,-0.41 -0.3,-0.55 -0.2,-0.23 -0.4,-0.44 -0.7,-0.65 -0.4,-0.36 -0.8,-0.77 -1.2,-1.21 -0.1,-0.19 -0.1,-0.39 -0.1,-0.6 0.1,-0.18 0.2,-0.36 0.4,-0.5 0.1,-0.1 0.2,-0.13 0.3,-0.16 z m -6.9,14.99 c -0.1,0.04 -0.2,0.12 -0.3,0.25 -0.1,0.07 0,0.21 0.1,0.29 0.4,0.29 0.9,0.55 1.3,0.8 0.5,0.21 0.9,0.36 1.4,0.5 0.1,0.02 0.2,0.08 0.4,0.04 0.4,-0.08 0.9,-0.14 1.4,-0.17 0.1,-0.04 0.2,-0.09 0.4,-0.07 l 0,0.09 c 0.3,0.05 0.5,0.15 0.7,0.35 0.1,0.07 0.1,0.14 0.1,0.25 0,0.11 0,0.3 -0.1,0.41 0,0.03 0.1,0.05 0.1,0.05 -0.1,0.24 -0.2,0.44 -0.2,0.71 -0.1,0.18 0,0.38 0,0.54 l 0,0.36 c 0.1,0.24 0.3,0.54 0.4,0.79 0.3,0.72 0.6,1.49 0.7,2.31 l 0.1,0.49 c 0.4,-0.23 0.8,-0.48 1.2,-0.8 0.2,-0.19 0.4,-0.4 0.7,-0.55 0.2,-0.11 0.3,-0.18 0.6,-0.14 0.3,0.06 0.6,0.33 0.6,0.69 l 0,0.49 c 0,0.1 -0.1,0.15 -0.1,0.25 -0.1,0.27 -0.2,0.47 -0.4,0.66 -0.5,0.39 -0.8,0.81 -1.2,1.24 -0.4,0.43 -0.8,0.87 -1.1,1.33 -0.7,0.84 -1.4,1.75 -1.9,2.69 -0.4,0.6 -0.7,1.24 -1.1,1.86 l -0.5,0.74 0.1,0.02 c 1.8,-0.66 3.5,-1.5 5.1,-2.49 0.6,-0.39 1.1,-0.81 1.7,-1.3 0.6,-0.61 1.2,-1.29 1.6,-2.04 0.4,-0.58 0.7,-1.21 0.9,-1.84 0,-0.2 0.1,-0.43 0.1,-0.64 0.1,-0.7 0.1,-1.44 -0.1,-2.15 -0.2,-1.37 -0.9,-2.62 -1.9,-3.6 -0.6,-0.64 -1.4,-1.15 -2.2,-1.49 -0.8,-0.37 -1.8,-0.66 -2.7,-0.82 -0.2,-0.05 -0.5,-0.1 -0.8,-0.14 -0.8,-0.12 -1.6,-0.22 -2.4,-0.25 -0.1,0 -0.3,0.01 -0.4,0.02 -0.1,0 -0.2,0.02 -0.4,0.01 -0.1,0.02 -0.2,0.06 -0.3,0.09 -0.4,0.05 -0.7,0.06 -1,0.05 -0.2,0.02 -0.4,0.07 -0.6,0.12 z m -15.3,16.36 c 0,0.83 0.1,1.63 0.4,2.37 0.4,0.92 1,1.75 1.8,2.37 0.3,0.14 0.5,0.31 0.8,0.41 0.2,0.07 0.4,0.07 0.6,0.13 l 0.3,0.06 c 0.1,0.02 0.1,0.02 0.2,0.03 l 0.3,-0.09 c 0,-0.3 -0.1,-0.59 -0.3,-0.85 -0.3,-0.35 -0.6,-0.76 -0.7,-1.2 0,-0.12 -0.1,-0.22 -0.1,-0.35 0.1,-0.19 0.2,-0.31 0.4,-0.42 0.2,-0.12 0.5,-0.2 0.8,-0.15 0.1,0.02 0.2,0.05 0.3,0.06 0.3,0.12 0.7,0.32 1,0.57 0.4,0.23 0.7,0.48 1,0.78 0.3,0.3 0.6,0.59 0.8,0.88 l 0.3,0.31 c 1.2,0.37 2.4,0.55 3.7,0.57 l 0.9,-0.01 0.5,-0.03 c 0,-0.26 0,-0.56 -0.2,-0.81 -0.2,-0.3 -0.3,-0.62 -0.6,-0.86 -0.3,-0.34 -0.7,-0.65 -1.1,-0.88 -0.6,-0.34 -1.1,-0.6 -1.7,-0.78 -1.1,-0.38 -2.2,-0.71 -3.3,-0.99 l -0.6,-0.15 -0.5,-0.12 -1.1,-0.19 -2.5,-0.42 -1.4,-0.24 z" />
          <path
             id="path3134"
             style="fill:#000000"
             d="m 789.5,1002 c -0.81,0 -1.66,0.2 -2.69,0.5 -1.86,0.7 -3.45,2.3 -3.56,3.6 -0.11,1.3 -0.74,2.3 -1.41,2.2 -0.66,0 -1.07,1 -0.93,2.3 0.3,2.8 -4.15,7.7 -6.88,7.4 -1.12,-0.1 -2.13,0.7 -2.22,1.8 -0.1,1.1 -0.85,1.5 -2.09,0.9 -1.08,-0.6 -1.35,-1.3 -0.63,-1.6 0.72,-0.4 -8.24,-1.6 -19.93,-2.6 -2.62,-0.2 -4.62,-0.4 -6.6,-0.5 l 0,-0.1 c 0,0 -84.95,-8.4 -183.25,-12.1 -24.57,-0.9 -47.05,-1.4 -66.9,-1.6 -19.86,-0.1 -37.1,0 -51.29,0.2 -28.37,0.5 -44.46,1.4 -44.46,1.4 l -0.25,0.1 c 0,0 16.4,0.6 44.75,0.1 28.34,-0.5 68.97,-0.4 118.09,1.4 98.24,3.6 183.16,12.1 183.16,12.1 3.26,0.5 6.8,0.9 9.78,1.2 5.71,0.5 11.63,1.8 13.22,2.8 6.19,4 6.25,4.1 2.47,7.1 -4.31,3.4 -5.58,3.4 -7,0.1 -0.6,-1.4 -2.06,-3 -3.22,-3.5 -2.6,-1.3 -6.41,1.6 -5.22,4 0.64,1.2 1.35,1.1 2.78,-0.6 2.6,-3 3.74,-1.2 1.47,2.3 -3.13,4.9 -5.73,5.8 -9.5,3.4 -1.83,-1.1 -4.2,-2.1 -5.31,-2.2 -3.74,-0.3 -8.24,3.1 -10.26,7.9 -1.67,4 -1.73,5.5 -0.4,9.6 0.87,2.7 2.59,5.4 3.81,6 1.22,0.6 2.87,1.8 3.66,2.7 2.52,3 21.67,9.8 33.47,12 19.25,3.6 32.82,4.6 37.53,2.7 3.41,-1.4 4.25,-2.5 4.53,-5.8 0.41,-5 -1.36,-7.4 -5.84,-7.7 -2.33,-0.2 -3.9,0.6 -5.04,2.7 -1.58,2.8 -1.3,4.5 0.72,4.6 0.52,0.1 0.77,-1 0.53,-2.4 -0.45,-2.6 2.47,-3.7 6.5,-2.5 2.79,0.9 2.51,5.4 -0.53,8.3 -2.99,2.8 -10.7,2.2 -11.59,-0.8 -0.36,-1.2 -1.61,-3.4 -2.78,-4.8 -2.62,-3.1 -2.58,-5.1 0.06,-4.8 4.08,0.3 8.33,-4.9 9.81,-12 1.94,-9.2 3.57,-11.4 8.13,-11 2.8,0.2 3.59,-0.2 3.15,-1.7 -0.31,-1.1 -1.53,-2 -2.68,-2.2 -1.86,-0.2 -1.84,-0.3 0.25,-1.3 1.29,-0.7 2.84,-0.8 3.43,-0.4 0.6,0.5 1.52,0 2.04,-1.1 1.39,-2.9 1.26,-3.3 -0.91,-2.7 -1.2,0.4 -2.71,-0.7 -3.78,-2.7 -2.18,-4 -7.72,-6.3 -15.63,-6.5 -5.4,-0.1 -6.1,-0.5 -6.56,-3.3 -0.71,-4.3 0.5,-5.5 5.28,-5.2 2.25,0.1 3.24,-0.2 2.22,-0.7 -1.02,-0.5 -2.1,-1.3 -2.41,-1.8 -0.31,-0.5 -2.28,-2.1 -4.43,-3.4 -1.98,-1.3 -3.3,-1.8 -4.66,-1.8 z m -47.75,32.8 0.66,0 c 1.74,0.2 3.32,1.2 4.87,3 1.71,2 2.16,3.8 1.44,5.9 -0.09,0.2 -0.16,0.5 -0.22,0.7 l -0.03,0 c -1.39,2.7 -4.4,4.1 -6.94,2.7 -0.92,-0.5 -1.7,-1.5 -2.06,-2.5 -0.36,-1.1 -0.37,-2.2 0.19,-3.2 0.29,-0.5 0.89,-1 1.46,-1.2 0.58,-0.2 1.07,-0.1 1.5,0.3 0.3,0.3 0.76,0.3 1.04,0 0.28,-0.3 0.26,-0.8 -0.04,-1.2 -0.41,-0.4 -0.89,-0.7 -1.4,-0.8 -0.51,-0.1 -1.03,0 -1.5,0.1 -0.95,0.3 -1.78,1 -2.28,2 -0.82,1.4 -0.81,3.1 -0.32,4.6 0.5,1.4 1.49,2.7 2.76,3.4 2.79,1.5 5.97,0.4 7.93,-1.9 0.21,0.1 0.48,0.1 0.81,0.1 2.5,0.2 2.26,3.6 -0.31,4.4 -1.07,0.3 -2.81,2.2 -3.87,4.1 -2.14,4.1 -3.32,3.7 -10,-3 -4.61,-4.7 -4.09,-12 1.06,-15.4 1.99,-1.3 3.69,-2 5.25,-2.1 z m 10.03,17.4 c 0.36,0 0.75,0 1.19,0.1 3.66,0.3 4.23,1 6.19,6.9 2.35,7.2 1.81,7.7 -4.78,4.2 -4.21,-2.3 -5.4,-6.9 -1.47,-5.7 1.21,0.3 2.07,1.6 1.87,2.8 -0.2,1.2 0.16,2.2 0.78,2.3 2.28,0.2 1.41,-4.9 -1,-5.9 -3.26,-1.3 -5.09,-0.2 -5.37,3.1 -0.15,1.9 -0.61,2.3 -1.41,1.4 -0.65,-0.8 -0.69,-3.2 -0.06,-5.4 0.88,-3.1 1.55,-3.8 4.06,-3.8 z m 8.91,2.1 c 0.99,-0.1 2.72,0.4 5.47,1.2 3.02,0.9 3.73,1.6 3.06,3.3 -0.49,1.2 -0.13,2.8 0.78,3.7 2.34,2.3 6.3,0.9 5.78,-2 -0.33,-1.9 0.25,-2.2 4.5,-1.7 -0.09,1.9 0.33,0.1 0.47,0.1 0.27,0 0.49,0.1 0.78,0.1 4.95,0.7 6.67,1.6 8.59,4.5 1.33,2 3.06,3.3 3.82,2.9 0.76,-0.4 1.81,0.2 2.34,1.2 1.54,3 0.99,4.3 -0.97,2.4 -1.23,-1.2 -1.82,-1.4 -1.9,-0.4 -4.66,2 -11.34,0.2 -15.16,-0.7 -1.48,-0.2 -3.05,-0.3 -4.37,-0.7 -4.59,-1.3 -8.09,-4.8 -7.91,-8 0.05,-0.9 -0.46,-1.9 -1.13,-2.4 -0.8,-0.6 -0.91,0.2 -0.25,2.5 1.23,4.3 1.2,4.7 -0.25,4.5 -0.63,0 -2.14,-2.5 -3.37,-5.4 -1.52,-3.6 -1.94,-5.1 -0.28,-5.1 z m 17.73,14.6 c 0.15,0 0.68,0 0.84,0.1 1.94,-2.4 2.34,-7.8 1.9,-10.1 -0.16,0 -0.73,0 -0.88,-0.1 -0.07,0.7 -0.21,1.6 -0.22,1.6 -0.1,1 -0.45,2.1 -0.82,4.3 -0.34,2 -0.79,3.3 -0.82,4.2 z m -6.2,-10.9 c 0.6,0 1.22,0.3 1.84,1 0.91,1.1 0.91,2 -0.09,2.8 -1,0.9 -1.88,0.6 -2.85,-0.8 -1.19,-1.7 -0.23,-3 1.1,-3 z m 19.44,2.6 c 0.73,0.1 1.58,1.1 1.9,2.2 0.9,3.1 -0.37,3.3 -1.9,0.4 -0.86,-1.7 -0.84,-2.6 0,-2.6 z m 17.18,2.8 c -0.31,0 -0.8,0.6 -1.37,1.8 -0.49,1 -0.34,1.9 0.34,1.9 0.68,0.1 1.35,-0.7 1.44,-1.8 0.1,-1.2 -0.09,-1.9 -0.41,-1.9 z"
             transform="translate(839.48,-33.371)" />
        </g>
      </g>
    </g>
  </g>
  <metadata
     id="metadata55269">
    <rdf:RDF>
      <cc:Work>
        <dc:format>image/svg+xml</dc:format>
        <dc:type
           rdf:resource="http://purl.org/dc/dcmitype/StillImage" />
        <cc:license
           rdf:resource="http://creativecommons.org/publicdomain/zero/1.0/" />
        <dc:publisher>
          <cc:Agent
             rdf:about="http://openclipart.org/">
            <dc:title>Openclipart</dc:title>
          </cc:Agent>
        </dc:publisher>
        <dc:title></dc:title>
        <dc:date>2007-11-30T08:13:59</dc:date>
        <dc:description>Merry Christmas. A gift from Chrisdesign to the Library!</dc:description>
        <dc:source>https://openclipart.org/detail/9280/xmas-card-by-chrisdesign</dc:source>
        <dc:creator>
          <cc:Agent>
            <dc:title>Chrisdesign</dc:title>
          </cc:Agent>
        </dc:creator>
        <dc:subject>
          <rdf:Bag>
            <rdf:li>card</rdf:li>
            <rdf:li>christmas</rdf:li>
            <rdf:li>jpg</rdf:li>
            <rdf:li>landscape</rdf:li>
            <rdf:li>rendeer</rdf:li>
            <rdf:li>santa</rdf:li>
            <rdf:li>sled</rdf:li>
            <rdf:li>xmas</rdf:li>
          </rdf:Bag>
        </dc:subject>
      </cc:Work>
      <cc:License
         rdf:about="http://creativecommons.org/publicdomain/zero/1.0/">
        <cc:permits
           rdf:resource="http://creativecommons.org/ns#Reproduction" />
        <cc:permits
           rdf:resource="http://creativecommons.org/ns#Distribution" />
        <cc:permits
           rdf:resource="http://creativecommons.org/ns#DerivativeWorks" />
      </cc:License>
    </rdf:RDF>
  </metadata>
</svg>
